<svg xmlns="http://www.w3.org/2000/svg" viewBox="0 0 78 44">
  <title>en_ww@ac-globalnav@links@buy@image_large@1x</title>
  <g>
    <rect width="78" height="44" fill="none"/>
    <g>
      <path d="M2.875,24.081A1.334,1.334,0,0,1,4.359,22.81a4.149,4.149,0,0,1,1.347.253v-1a3.652,3.652,0,0,0-1.538-.3A2.354,2.354,0,0,0,1.6,24.081,2.1,2.1,0,0,0,2.67,25.92v.027H.879V27H6.512V25.947H5.227C3.874,25.947,2.875,25.168,2.875,24.081Z" fill="#fff"/>
      <rect x="8.406" y="17.136" width="1.265" height="9.864" fill="#fff"/>
      <path d="M23.076,19.378a.762.762,0,1,0,.759-.752A.754.754,0,0,0,23.076,19.378Z" fill="#fff"/>
      <path d="M21.736,20.123a.749.749,0,1,0-.759-.745A.756.756,0,0,0,21.736,20.123Z" fill="#fff"/>
      <path d="M22.789,18.318a.749.749,0,1,0-.759-.745A.756.756,0,0,0,22.789,18.318Z" fill="#fff"/>
      <path d="M31.3,25.947H28.9c-1.142,0-1.8-.643-1.8-1.962V20.738H25.831v3.247c0,1.367-.444,2.03-1.21,2.03s-1.2-.663-1.2-2.03V21.422H22.16v2.563c0,1.367-.581,2.03-1.559,2.03-.9,0-1.483-.663-1.483-2.03V21.422H17.853v2.563c0,1.319-.663,1.962-1.8,1.962H13.642V21.422H12.377v5.558c0,1.456-.643,2.146-1.989,2.146h-.219v1.012h.321c2.112,0,3.151-1.019,3.151-3.124V27h2.413a2.03,2.03,0,0,0,2.058-1.456h.027a2.272,2.272,0,0,0,2.283,1.524,1.99,1.99,0,0,0,1.989-1.449h.014a1.952,1.952,0,0,0,1.941,1.449,1.834,1.834,0,0,0,1.839-1.5h.021A2.385,2.385,0,0,0,28.606,27h3.965V17.136H31.3Z" fill="#fff"/>
      <rect x="34.649" y="17.136" width="1.265" height="9.864" fill="#fff"/>
      <path d="M44.376,21.7a.749.749,0,1,0-.759-.745A.756.756,0,0,0,44.376,21.7Z" fill="#fff"/>
      <path d="M57.98,21.415H52.723l2.516-3.37H53.9L51.192,21.6v.868H57.98c1.285,0,1.846.677,1.846,1.736a1.607,1.607,0,0,1-1.846,1.743H48.369V21.422H47.1v4.8a2.7,2.7,0,1,1-5.394,0v-.4H40.446v.4a3.611,3.611,0,0,0,3.972,3.917c2.215,0,3.616-1.148,3.9-3.138H57.98c2.078,0,3.11-1.053,3.11-2.8C61.09,22.481,60.058,21.415,57.98,21.415Z" fill="#fff"/>
      <path d="M70.408,20.547c-1.757,0-2.994,1.271-2.994,3.418v1.982H65.855c-1.23,0-1.839-.581-1.839-2.03V17.136H62.751v6.781c0,2.051.984,3.083,2.9,3.083h4.334c2.3,0,3.418-1.066,3.418-3.247A2.975,2.975,0,0,0,70.408,20.547Zm-.424,5.4H68.678V23.965c0-1.5.6-2.365,1.729-2.365,1.025,0,1.729.889,1.729,2.153A1.914,1.914,0,0,1,69.984,25.947Z" fill="#fff"/>
      <rect x="75.152" y="18.127" width="1.265" height="8.873" fill="#fff"/>
      <path d="M76.314,16.3c-.437,0-.745-.246-.745-.588a.512.512,0,0,1,.567-.492,2.482,2.482,0,0,1,.656.089v-.766a2.656,2.656,0,0,0-.725-.1,1.188,1.188,0,0,0-1.333,1.121.864.864,0,0,0,.321.7V16.3h-.608v.766h2.673V16.3Z" fill="#fff"/>
    </g>
  </g>
</svg>
