<svg xmlns="http://www.w3.org/2000/svg" viewBox="0 0 95 44">
  <title>en_ww@ac-globalnav@links@accessories@image_small@1x</title>
  <rect width="91" height="43" fill="none"/>
  <g>
    <rect width="95" height="44" fill="none"/>
    <g>
      <path d="M3.013,23.361a1.619,1.619,0,0,1,1.8-1.543,5.037,5.037,0,0,1,1.635.307V20.9a4.442,4.442,0,0,0-1.868-.365,2.858,2.858,0,0,0-3.113,2.822,2.544,2.544,0,0,0,1.295,2.233v.033H.589v1.278h6.84V25.628H5.869C4.225,25.628,3.013,24.682,3.013,23.361Z" fill="#fff"/>
      <rect x="9.729" y="14.928" width="1.536" height="11.979" fill="#fff"/>
      <path d="M25.915,18.556a.909.909,0,1,0-.921-.905A.918.918,0,0,0,25.915,18.556Z" fill="#fff"/>
      <path d="M27.542,17.65a.926.926,0,1,0,.921-.912A.916.916,0,0,0,27.542,17.65Z" fill="#fff"/>
      <path d="M27.193,16.364a.909.909,0,1,0-.921-.905A.918.918,0,0,0,27.193,16.364Z" fill="#fff"/>
      <path d="M37.528,25.628H34.614c-1.386,0-2.191-.78-2.191-2.382V19.3H30.887v3.943c0,1.66-.54,2.465-1.469,2.465-.913,0-1.453-.8-1.453-2.465V20.133H26.43v3.113c0,1.66-.706,2.465-1.893,2.465-1.087,0-1.8-.8-1.8-2.465V20.133H21.2v3.113c0,1.6-.805,2.382-2.183,2.382h-2.93v-5.5H14.551v6.748c0,1.769-.78,2.607-2.416,2.607H11.87v1.229h.39c2.565,0,3.827-1.237,3.827-3.794v-.017h2.93a2.465,2.465,0,0,0,2.5-1.768h.033a2.759,2.759,0,0,0,2.772,1.851,2.417,2.417,0,0,0,2.416-1.76h.017a2.37,2.37,0,0,0,2.357,1.76,2.227,2.227,0,0,0,2.233-1.817h.025a2.9,2.9,0,0,0,2.889,1.734h4.814V14.928H37.528Z" fill="#fff"/>
      <rect x="41.595" y="14.928" width="1.536" height="11.979" fill="#fff"/>
      <path d="M53.407,20.473a.909.909,0,1,0-.921-.9A.917.917,0,0,0,53.407,20.473Z" fill="#fff"/>
      <path d="M69.926,20.125H63.542L66.6,16.032H64.97l-3.287,4.316V21.4h8.243c1.561,0,2.241.822,2.241,2.109a1.951,1.951,0,0,1-2.241,2.116H58.255v-5.5H56.719V25.96c0,2.191-1.212,3.478-3.262,3.478-2.067,0-3.287-1.286-3.287-3.478v-.489H48.634v.489c0,3,1.785,4.757,4.823,4.757,2.689,0,4.391-1.395,4.731-3.811H69.926c2.523,0,3.777-1.278,3.777-3.395C73.7,21.42,72.449,20.125,69.926,20.125Z" fill="#fff"/>
      <path d="M85.017,19.07c-2.133,0-3.636,1.544-3.636,4.15v2.407H79.488c-1.494,0-2.233-.706-2.233-2.466V14.928H75.72v8.234c0,2.49,1.2,3.744,3.52,3.744H84.5c2.789,0,4.15-1.295,4.15-3.943A3.612,3.612,0,0,0,85.017,19.07ZM84.5,25.628H82.917V23.221c0-1.818.73-2.872,2.1-2.872,1.245,0,2.1,1.079,2.1,2.614C87.117,24.748,86.262,25.628,84.5,25.628Z" fill="#fff"/>
      <path d="M92.188,13.916c-.531,0-.9-.3-.9-.715a.622.622,0,0,1,.689-.6,3,3,0,0,1,.8.108v-.93a3.206,3.206,0,0,0-.88-.116,1.443,1.443,0,0,0-1.619,1.361,1.05,1.05,0,0,0,.39.855v.033h-.739v.93h3.246v-.93Z" fill="#fff"/>
      <rect x="90.777" y="16.132" width="1.536" height="10.774" fill="#fff"/>
    </g>
  </g>
</svg>
