<svg xmlns="http://www.w3.org/2000/svg" viewBox="0 0 40 56">
    <path fill="#6e6e73" d="M14.16,30.5H11.82a.81.81,0,0,1,0-1.62h2.12c0-.24,0-.55,0-.9s0-.57,0-.84H11.82a.78.78,0,0,1-.8-.82.77.77,0,0,1,.8-.8h2.34c.94-4.4,4.45-6.56,8.4-6.56a6.54,6.54,0,0,1,1.78.17c.58.2.78.53.78.94a.85.85,0,0,1-.94.88c-.37,0-.9-.1-1.64-.1a6.11,6.11,0,0,0-6.27,4.67h6.09a.75.75,0,0,1,.78.8.77.77,0,0,1-.78.82H16c0,.27,0,.55,0,.86a6.19,6.19,0,0,0,0,.88h6.38a.81.81,0,0,1,0,1.62H16.27a6.1,6.1,0,0,0,6.27,4.65c.72,0,1.23-.1,1.64-.1a.85.85,0,0,1,.94.88c0,.43-.26.72-.77.9a5.68,5.68,0,0,1-1.79.21C18.61,37,15.12,34.88,14.16,30.5Z"/>
    <path fill="#6e6e73" d="M20,10.7A17.3,17.3,0,1,1,2.7,28,17.32,17.32,0,0,1,20,10.7m0-2.2A19.5,19.5,0,1,0,39.5,28,19.5,19.5,0,0,0,20,8.5Z"/>
</svg>
