<svg xmlns="http://www.w3.org/2000/svg" viewBox="0 0 33 44">
  <defs>
    <style>
      .a {
        fill: none;
      }

      .b {
        fill: #fff;
      }
    </style>
  </defs>
  <title>en_ww@ac-globalnav@links@support@image_large</title>
  <g>
    <rect class="a" width="33" height="44"/>
    <g>
      <path class="b" d="M10.638,26.029v.9L10.433,27h-.4A2.348,2.348,0,0,1,7.6,25.448H7.582A2.259,2.259,0,0,1,5.155,27h-1.3c0,2.112-1.032,3.138-3.138,3.138H.411V29.126H.616c1.319,0,1.969-.7,1.969-2.126V23.965c0-2.146,1.237-3.418,3-3.418A2.979,2.979,0,0,1,8.58,23.753v.232c0,1.34.636,1.962,1.771,1.962h.082ZM7.315,23.753c0-1.265-.69-2.153-1.743-2.153-1.094,0-1.716.875-1.716,2.365v1.982h1.3A1.918,1.918,0,0,0,7.315,23.753Z"/>
      <path class="b" d="M18.205,25.947V27H10.433l-.205-.068v-.916l.205-.068h2.974V25.92A3.1,3.1,0,0,1,11.725,23.1,3.383,3.383,0,0,1,15.4,19.733a6.351,6.351,0,0,1,1.531.212v1.019a6.78,6.78,0,0,0-1.408-.178A2.3,2.3,0,0,0,12.989,23.1c0,1.675,1.552,2.851,3.746,2.851Z"/>
      <path class="b" d="M26.874,26.016v.916L26.669,27H21.8a4.01,4.01,0,0,1-2.276-.506V25.482a5.19,5.19,0,0,0,2.386.465h1.921v-2.4c0-1.8-.759-2.666-2.352-2.666H20.77V19.829h.69c2.454,0,3.637,1.169,3.637,3.623v2.5h1.572Z"/>
      <path class="b" d="M29.526,17.136V27H26.669l-.205-.068v-.916l.205-.068h1.586V17.136Z"/>
      <path class="b" d="M31.324,17.136h1.265V27H31.324Z"/>
    </g>
  </g>
</svg>
