<svg xmlns="http://www.w3.org/2000/svg" viewBox="0 0 38 44">
  <defs>
    <style>
      .a {
        fill: none;
      }

      .b {
        fill: #fff;
      }
    </style>
  </defs>
  <title>en_ww@ac-globalnav@links@support@image_small</title>
  <g>
    <rect class="a" width="38" height="44"/>
    <g>
      <path class="b" d="M11.98,25.858V26.89l-.234.078h-.453a2.683,2.683,0,0,1-2.781-1.773H8.488a2.582,2.582,0,0,1-2.773,1.773H4.23c0,2.414-1.18,3.586-3.586,3.586H.293V29.4H.527c1.508,0,2.25-.8,2.25-2.43V23.5c0-2.453,1.414-3.906,3.43-3.906a3.4,3.4,0,0,1,3.422,3.664v.266c0,1.531.727,2.242,2.023,2.242h.094Zm-3.8-2.6c0-1.445-.789-2.461-1.992-2.461-1.25,0-1.961,1-1.961,2.7v2.266H5.715A2.192,2.192,0,0,0,8.184,23.257Z"/>
      <path class="b" d="M20.629,25.765v1.2H11.746l-.234-.078V25.843l.234-.078h3.4v-.031a3.537,3.537,0,0,1-1.922-3.227c0-2.242,1.719-3.844,4.2-3.844a7.258,7.258,0,0,1,1.75.242v1.164a7.749,7.749,0,0,0-1.609-.2,2.623,2.623,0,0,0-2.9,2.641c0,1.914,1.773,3.258,4.281,3.258Z"/>
      <path class="b" d="M30.855,25.843V26.89l-.234.078H25.059a4.583,4.583,0,0,1-2.6-.578V25.233a5.931,5.931,0,0,0,2.727.531h2.2V23.022c0-2.062-.867-3.047-2.687-3.047h-.812v-1.2h.789c2.8,0,4.156,1.336,4.156,4.141v2.852h1.8Z"/>
      <path class="b" d="M33.887,15.694V26.968H30.621l-.234-.078V25.843l.234-.078h1.813V15.694Z"/>
      <path class="b" d="M36.262,15.694h1.445V26.968H36.262Z"/>
    </g>
  </g>
</svg>
