<svg xmlns="http://www.w3.org/2000/svg" viewBox="0 0 40 56">
	<path fill="#6e6e73" d="M24.53,32.13V23.85c0-.52.27-.88.77-.88h2.86c3.09,0,4.84,1.8,4.84,5S31.23,33,28.16,33H25.3C24.8,33,24.53,32.67,24.53,32.13ZM28,31.79c2.21,0,3.45-1.28,3.45-3.79S30.17,24.21,28,24.21H26.06v7.58Z"/>
	<path fill="#6e6e73" d="M16.71,32.13V23.85c0-.52.27-.88.77-.88h5.28a.61.61,0,0,1,.66.65.63.63,0,0,1-.66.66H18.28v3h4.19a.63.63,0,1,1,0,1.25H18.28v3.18h4.48a.66.66,0,1,1,0,1.31H17.48C17,33,16.71,32.67,16.71,32.13Z"/>
	<path fill="#6e6e73" d="M7,32.56a1.52,1.52,0,0,1,.1-.51l3.18-8.52a1.08,1.08,0,0,1,1.08-.77,1.11,1.11,0,0,1,1.11.77l3.17,8.52a1.52,1.52,0,0,1,.1.51.67.67,0,0,1-.73.68c-.36,0-.6-.17-.76-.64l-.86-2.46h-4L8.49,32.6c-.16.47-.4.64-.77.64A.66.66,0,0,1,7,32.56Zm6-3.63-1.56-4.44h-.1L9.76,28.93Z"/>
    <path fill="#6e6e73" d="M20,10.7A17.3,17.3,0,1,1,2.7,28,17.32,17.32,0,0,1,20,10.7m0-2.2A19.5,19.5,0,1,0,39.5,28,19.5,19.5,0,0,0,20,8.5Z"/>
</svg>
