<svg xmlns="http://www.w3.org/2000/svg" width="71" height="15"><path fill-rule="evenodd" fill="#111" d="M68.193 14.816V10.13h-4.502v4.686h-2.298V3.82h2.298v4.409h4.502V3.82h2.317v10.996h-2.317zm-13.618.129c-2.909 0-4.632-1.827-4.632-5.001V8.708c0-3.137 1.723-5.018 4.65-5.018 2.724 0 4.373 1.716 4.373 3.856v.11h-2.204c0-1.087-.686-2.047-2.15-2.047-1.575 0-2.353 1.033-2.353 3.099v1.236c0 2.086.778 3.064 2.353 3.064 1.593 0 2.15-.886 2.15-2.03h2.204v.203c0 1.993-1.464 3.764-4.391 3.764zm-9.339-.129h-2.279V5.682H39.66V3.82h8.874v1.862h-3.298v9.134zm-8.894-2.767h-3.501l-.797 2.767h-2.297L33.304 3.82h2.724l3.539 10.996h-2.446l-.779-2.767zM34.62 5.978h-.038l-1.26 4.373h2.538l-1.24-4.373zm-10.58 8.838l-2.039-7.529h-.037l-2.037 7.529h-2.298L14.553 3.82h2.445l1.816 7.841h.037l1.965-7.841h2.334l1.965 7.841h.036l1.835-7.841h2.446l-3.076 10.996H24.04zm-12.813-1.678c-.629.922-1.278 1.825-2.315 1.844-1 .018-1.333-.59-2.481-.59s-1.518.571-2.463.608c-.999.037-1.758-.978-2.388-1.899C.284 11.238-.698 7.846.636 5.559c.648-1.143 1.833-1.862 3.11-1.881.982-.018 1.889.646 2.482.646.592 0 1.647-.774 2.888-.701.481.037 1.87.185 2.759 1.493-.074.056-1.648.959-1.629 2.858.018 2.268 1.999 3.025 2.018 3.043-.019.056-.315 1.07-1.037 2.121zM6.099 3.457c-.111-.851.316-1.756.799-2.311C7.436.498 8.365.036 9.126-.001c.093.888-.26 1.757-.78 2.404-.539.629-1.392 1.128-2.247 1.054z"/></svg>