<svg xmlns="http://www.w3.org/2000/svg" width="27" height="11"><path fill-rule="evenodd" fill="#111" d="M25.419 10.918V9.575h-.03c-.459.898-1.361 1.426-2.512 1.426-1.97 0-3.309-1.592-3.309-4.037 0-2.437 1.339-4.03 3.301-4.03 1.129 0 2.024.529 2.467 1.396h.03V.029h1.632v10.889h-1.579zm-2.106-6.603c-1.256 0-2.076 1.042-2.076 2.649 0 1.622.82 2.656 2.076 2.656 1.241 0 2.061-1.056 2.061-2.648 0-1.593-.82-2.657-2.061-2.657zm-6.452 5.298h-.038c-.444.852-1.421 1.388-2.482 1.388-1.564 0-2.654-.936-2.654-2.339 0-1.396 1.06-2.196 3.015-2.317l2.099-.128v-.604c0-.883-.579-1.366-1.61-1.366-.85 0-1.466.438-1.594 1.11h-1.52c.046-1.412 1.369-2.438 3.159-2.438 1.926 0 3.182 1.012 3.182 2.581v5.418h-1.557V9.613zm-.06-2.264l-1.873.121c-1.053.067-1.602.46-1.602 1.147 0 .664.572 1.094 1.467 1.094 1.143 0 2.008-.732 2.008-1.751v-.611zm-9.157-.151H5.312v3.72H3.627V.029h4.069c2.106 0 3.573 1.456 3.573 3.577 0 2.128-1.497 3.592-3.625 3.592zm-.391-5.743H5.312v4.324h1.933c1.467 0 2.301-.792 2.301-2.166 0-1.373-.834-2.158-2.293-2.158zm-6.311.408a.94.94 0 0 1-.94-.936c0-.521.428-.928.94-.928a.93.93 0 0 1 .947.928.937.937 0 0 1-.947.936zm.819 9.055H.129V3.017h1.632v7.901z"/></svg>