<svg xmlns="http://www.w3.org/2000/svg" width="77" height="11"><path fill-rule="evenodd" fill="#111" d="M72.697 11.002c-2.294 0-3.804-1.547-3.804-4.079 0-2.525 1.517-4.071 3.804-4.071S76.5 4.398 76.5 6.923c0 2.532-1.509 4.079-3.803 4.079zm0-6.82c-1.288 0-2.127 1.001-2.127 2.741 0 1.748.839 2.749 2.127 2.749 1.296 0 2.126-1.001 2.126-2.749 0-1.74-.838-2.741-2.126-2.741zm-4.863.156c-1.06 0-1.715.695-1.715 1.808v4.706h-1.647V2.994h1.571v1.337h.038c.267-.919.983-1.464 1.928-1.464.236 0 .442.037.564.06v1.501c-.129-.052-.419-.09-.739-.09zM59.689 7.17h-2.363v3.682h-1.707V.073h4.123c2.135 0 3.621 1.442 3.621 3.541 0 2.106-1.517 3.556-3.674 3.556zm-.396-5.685h-1.967v4.28h1.959c1.486 0 2.332-.784 2.332-2.144 0-1.359-.846-2.136-2.324-2.136zm-9.855 4.96c1.639.373 2.264 1.001 2.264 2.136 0 1.435-1.365 2.421-3.255 2.421-2.005 0-3.209-.964-3.362-2.458h1.632c.152.822.724 1.225 1.73 1.225.991 0 1.601-.403 1.601-1.046 0-.508-.298-.806-1.174-1.001l-1.304-.298c-1.524-.344-2.279-1.061-2.279-2.204 0-1.405 1.25-2.368 3.095-2.368 1.867 0 3.079 1.016 3.133 2.465h-1.548c-.091-.762-.663-1.24-1.585-1.24-.892 0-1.486.426-1.486 1.053 0 .493.365.829 1.234 1.024l1.304.291zm-6.945 3.07h-.03c-.473.897-1.387 1.472-2.553 1.472-2.028 0-3.369-1.584-3.369-4.064s1.341-4.056 3.353-4.056c1.151 0 2.066.567 2.515 1.434h.031V.073h1.654v10.779h-1.601V9.515zm-2.149-5.289c-1.303 0-2.119 1.046-2.119 2.697 0 1.658.816 2.697 2.119 2.697 1.265 0 2.111-1.053 2.111-2.697 0-1.628-.846-2.697-2.111-2.697zm-8.554 6.776c-2.294 0-3.803-1.547-3.803-4.079 0-2.525 1.517-4.071 3.803-4.071 2.287 0 3.804 1.546 3.804 4.071 0 2.532-1.51 4.079-3.804 4.079zm0-6.82c-1.288 0-2.126 1.001-2.126 2.741 0 1.748.838 2.749 2.126 2.749 1.296 0 2.127-1.001 2.127-2.749 0-1.74-.839-2.741-2.127-2.741zM23.827 7.17h-2.363v3.682h-1.707V.073h4.123c2.134 0 3.621 1.442 3.621 3.541 0 2.106-1.517 3.556-3.674 3.556zm-.396-5.685h-1.967v4.28h1.959c1.486 0 2.332-.784 2.332-2.144 0-1.359-.846-2.136-2.324-2.136zm-5.79 2.853c-1.059 0-1.715.695-1.715 1.808v4.706H14.28V2.994h1.57v1.337h.038c.267-.919.983-1.464 1.928-1.464a3 3 0 0 1 .564.06v1.501c-.129-.052-.419-.09-.739-.09zm-6.026-2.495c-.525 0-.952-.411-.952-.918 0-.516.427-.927.952-.927.534 0 .961.411.961.927 0 .507-.427.918-.961.918zM6.974 7.939H2.782l-1.006 2.913H0L3.971.073h1.844l3.971 10.779H7.98L6.974 7.939zM4.901 1.866h-.046L3.216 6.594h3.323L4.901 1.866zm7.538 8.986h-1.647V2.994h1.647v7.858z"/></svg>