<svg xmlns="http://www.w3.org/2000/svg" width="84" height="11"><path fill-rule="evenodd" fill="#111" d="M79.693 11.001c-2.296 0-3.806-1.545-3.806-4.075 0-2.522 1.518-4.067 3.806-4.067 2.288 0 3.806 1.545 3.806 4.067 0 2.53-1.51 4.075-3.806 4.075zm0-6.814c-1.289 0-2.128 1-2.128 2.739 0 1.746.839 2.746 2.128 2.746 1.297 0 2.128-1 2.128-2.746 0-1.739-.839-2.739-2.128-2.739zm-4.867.157c-1.06 0-1.716.694-1.716 1.806v4.701h-1.647v-7.85h1.571v1.336h.038c.267-.918.984-1.463 1.93-1.463.236 0 .442.037.564.06v1.5c-.129-.053-.419-.09-.74-.09zm-8.337 2.828h-2.365v3.679h-1.708V.083h4.126c2.136 0 3.623 1.44 3.623 3.537 0 2.105-1.518 3.552-3.676 3.552zm-.397-5.679h-1.968v4.276h1.96c1.488 0 2.334-.783 2.334-2.141 0-1.359-.846-2.135-2.326-2.135zM55.9 1.698h-.022l-2.246 1.561V1.615L55.885.09h1.667v10.761H55.9V1.698zm-5.773 0h-.022l-2.246 1.561V1.615L50.112.09h1.667v10.761h-1.652V1.698zM39.33 7.426c0 1.366.839 2.269 2.158 2.269.938 0 1.632-.463 1.853-1.15h1.564c-.229 1.433-1.617 2.456-3.455 2.456-2.357 0-3.783-1.56-3.783-4.038 0-2.462 1.449-4.104 3.714-4.104 2.227 0 3.616 1.537 3.616 3.918v.552H39.33v.097zm4.019-1.224c-.038-1.201-.816-2.045-1.968-2.045-1.151 0-1.96.859-2.044 2.045h4.012zm-8.504-.119c0-1.179-.564-1.829-1.708-1.829-1.16 0-1.907.806-1.907 2.023v4.574h-1.648v-7.85h1.572v1.313h.038c.435-.895 1.289-1.448 2.524-1.448 1.77 0 2.784 1.105 2.784 2.903v5.082h-1.655V6.083zm-10.281 4.918c-2.295 0-3.806-1.545-3.806-4.075 0-2.522 1.518-4.067 3.806-4.067 2.288 0 3.806 1.545 3.806 4.067 0 2.53-1.51 4.075-3.806 4.075zm0-6.814c-1.289 0-2.128 1-2.128 2.739 0 1.746.839 2.746 2.128 2.746 1.297 0 2.128-1 2.128-2.746 0-1.739-.839-2.739-2.128-2.739zm-6.612 1.918c0-1.156-.595-1.851-1.754-1.851-1.22 0-1.968.821-1.968 2.06v4.537h-1.647V.083h1.632v4.231h.038c.442-.918 1.32-1.448 2.54-1.448 1.762 0 2.814 1.15 2.814 2.926v5.059h-1.655V6.105zM7.735 7.172H5.371v3.679H3.662V.083h4.126c2.136 0 3.623 1.44 3.623 3.537 0 2.105-1.517 3.552-3.676 3.552zm-.397-5.679H5.371v4.276h1.96c1.487 0 2.334-.783 2.334-2.141 0-1.359-.847-2.135-2.327-2.135zM.954 1.85c-.526 0-.953-.418-.953-.925 0-.515.427-.926.953-.926S1.9.41 1.9.925c0 .507-.42.925-.946.925zm.824 9.001H.13v-7.85h1.648v7.85z"/></svg>