<svg xmlns="http://www.w3.org/2000/svg" width="164.938" height="22" viewBox="0 0 164.938 22">
  <metadata><?xpacket begin="﻿" id="W5M0MpCehiHzreSzNTczkc9d"?>
<x:xmpmeta xmlns:x="adobe:ns:meta/" x:xmptk="Adobe XMP Core 5.6-c138 79.159824, 2016/09/14-01:09:01        ">
   <rdf:RDF xmlns:rdf="http://www.w3.org/1999/02/22-rdf-syntax-ns#">
      <rdf:Description rdf:about=""/>
   </rdf:RDF>
</x:xmpmeta>
                                                                                                    
                                                                                                    
                                                                                                    
                                                                                                    
                                                                                                    
                                                                                                    
                                                                                                    
                                                                                                    
                                                                                                    
                                                                                                    
                                                                                                    
                                                                                                    
                                                                                                    
                                                                                                    
                                                                                                    
                                                                                                    
                                                                                                    
                                                                                                    
                                                                                                    
                                                                                                    
                           
<?xpacket end="w"?></metadata>
<defs>
    <style>
      .cls-1 {
        fill: #111;
        fill-rule: evenodd;
      }
    </style>
  </defs>
  <path class="cls-1" d="M22.508,21.8H19.42V5.8H19.314l-6.552,15.83h-2.5L3.695,5.8H3.59v16H0.517V0.065h3.9l7.034,17.156h0.121L18.592,0.065h3.916V21.8Zm2.2-4.5c0-2.786,2.124-4.383,6.04-4.624l4.2-.256v-1.2c0-1.762-1.16-2.726-3.223-2.726A2.961,2.961,0,0,0,28.534,10.7H25.492c0.09-2.817,2.741-4.865,6.326-4.865,3.856,0,6.371,2.018,6.371,5.151V21.8H35.071V19.194H35a5.557,5.557,0,0,1-4.971,2.771C26.892,21.965,24.708,20.1,24.708,17.3ZM34.95,15.9v-1.22l-3.75.241c-2.109.136-3.208,0.919-3.208,2.29,0,1.325,1.145,2.184,2.937,2.184C33.218,19.39,34.95,17.929,34.95,15.9Zm16.7-4.428a3.479,3.479,0,0,0-3.705-2.922c-2.485,0-4.142,2.094-4.142,5.362,0,3.374,1.672,5.377,4.157,5.377a3.419,3.419,0,0,0,3.705-2.832h3.118C54.439,19.8,51.774,22,47.948,22c-4.5,0-7.456-3.073-7.456-8.088,0-4.9,2.952-8.073,7.426-8.073,4.052,0,6.567,2.545,6.838,5.633h-3.1ZM57.36,21.8V0.065h8.706c3.841,0,6.371,2.139,6.371,5.422a4.864,4.864,0,0,1-3.917,4.729v0.121a5.24,5.24,0,0,1,4.955,5.317c0,3.826-2.8,6.145-7.425,6.145H57.36ZM60.734,9.313h3.75c2.922,0,4.594-1.205,4.594-3.359,0-2.018-1.386-3.133-3.841-3.133h-4.5V9.313Zm4.639,9.73c3.028,0,4.639-1.25,4.639-3.6s-1.657-3.555-4.85-3.555H60.734v7.154h4.639Zm9.852-5.136c0-4.956,2.937-8.073,7.5-8.073s7.486,3.118,7.486,8.073c0,4.985-2.892,8.088-7.486,8.088C78.148,22,75.226,18.893,75.226,13.907Zm11.673,0c0-3.389-1.567-5.392-4.173-5.392s-4.187,2-4.187,5.392c0,3.419,1.567,5.407,4.187,5.407S86.9,17.326,86.9,13.907Zm5.247,0c0-4.956,2.937-8.073,7.5-8.073s7.485,3.118,7.485,8.073c0,4.985-2.891,8.088-7.485,8.088C95.068,22,92.146,18.893,92.146,13.907Zm11.673,0c0-3.389-1.566-5.392-4.172-5.392s-4.187,2-4.187,5.392c0,3.419,1.567,5.407,4.187,5.407S103.819,17.326,103.819,13.907ZM119.025,6.03h3.81l-6.521,6.808,6.778,8.962h-3.781l-5.347-6.989-1.325,1.325V21.8H109.37V0.065h3.269V12.792h0.015Zm24.394,9.9h-8.284L133.147,21.8h-3.51l7.848-21.735h3.645L148.977,21.8h-3.57Zm-7.426-2.711h6.568L139.322,3.68h-0.09Zm14.7-11.357a1.89,1.89,0,0,1,3.78,0A1.89,1.89,0,0,1,150.694,1.857ZM150.95,6.03h3.268V21.8H150.95V6.03Zm6.444,0h3.118V8.711h0.061a3.775,3.775,0,0,1,3.795-2.847,5.006,5.006,0,0,1,1.115.121V9.012a4.8,4.8,0,0,0-1.461-.181c-2.079,0-3.374,1.4-3.374,3.63V21.8h-3.254V6.03Z" transform="translate(-0.531)"/>
</svg>
