<svg xmlns="http://www.w3.org/2000/svg" width="53" height="11"><path fill-rule="evenodd" fill="#111" d="M49.221 10.998c-2.311 0-3.786-1.552-3.786-4.044 0-2.478 1.483-4.037 3.786-4.037 2.304 0 3.778 1.559 3.778 4.037 0 2.492-1.459 4.044-3.778 4.044zm0-6.741c-1.323 0-2.113 1.002-2.113 2.697 0 1.709.79 2.703 2.113 2.703s2.106-.994 2.106-2.703c0-1.695-.791-2.697-2.106-2.697zM42.59 6.231V10.9h-1.642V3.015h1.574v1.34h.03c.251-.888.981-1.423 1.916-1.423.235 0 .433.03.562.06v1.514c-.137-.053-.426-.09-.737-.09-1.049 0-1.703.7-1.703 1.815zm-6.452.956h-2.357V10.9h-1.702V.032h4.112c2.129 0 3.611 1.454 3.611 3.57 0 2.124-1.513 3.585-3.664 3.585zm-.395-5.731h-1.962v4.315h1.954c1.483 0 2.326-.791 2.326-2.161 0-1.371-.843-2.154-2.318-2.154zM25.692 9.559h-.03c-.464.896-1.376 1.424-2.539 1.424-1.992 0-3.345-1.589-3.345-4.029 0-2.433 1.353-4.022 3.337-4.022 1.14 0 2.045.527 2.494 1.393h.03V.032h1.649V10.9h-1.596V9.559zM23.564 4.31c-1.27 0-2.099 1.039-2.099 2.644 0 1.619.829 2.651 2.099 2.651 1.254 0 2.082-1.055 2.082-2.644 0-1.589-.828-2.651-2.082-2.651zm-6.522 5.287h-.038c-.449.851-1.437 1.386-2.509 1.386-1.581 0-2.683-.934-2.683-2.335 0-1.393 1.072-2.192 3.048-2.312l2.121-.128v-.602c0-.882-.586-1.364-1.627-1.364-.859 0-1.482.437-1.612 1.107h-1.535c.046-1.408 1.383-2.432 3.193-2.432 1.946 0 3.215 1.009 3.215 2.575V10.9h-1.573V9.597zm-.061-2.259l-1.893.12c-1.064.068-1.619.459-1.619 1.145 0 .662.578 1.092 1.482 1.092 1.156 0 2.03-.731 2.03-1.747v-.61zm-9.256-.151H5.369V10.9H3.666V.032h4.112c2.129 0 3.611 1.454 3.611 3.57 0 2.124-1.512 3.585-3.664 3.585zM7.33 1.456H5.369v4.315h1.953c1.483 0 2.326-.791 2.326-2.161 0-1.371-.843-2.154-2.318-2.154zm-6.379.406a.944.944 0 0 1-.95-.933c0-.52.433-.927.95-.927.532 0 .958.407.958.927a.942.942 0 0 1-.958.933zM1.78 10.9H.13V3.015h1.65V10.9z"/></svg>