<svg xmlns="http://www.w3.org/2000/svg" width="58" height="11"><path fill-rule="evenodd" fill="#111" d="M55.846 10.851V1.698h-.021l-2.244 1.561V1.615L55.831.09h1.666v10.761h-1.651zm-5.767-9.153h-.022l-2.244 1.561V1.615L50.064.09h1.666v10.761h-1.651V1.698zM39.293 7.426c0 1.366.838 2.269 2.156 2.269.937 0 1.63-.463 1.851-1.15h1.562c-.228 1.433-1.615 2.456-3.451 2.456-2.355 0-3.78-1.56-3.78-4.038 0-2.462 1.448-4.104 3.711-4.104 2.225 0 3.612 1.537 3.612 3.918v.552h-5.661v.097zm4.015-1.224c-.038-1.201-.815-2.045-1.966-2.045-1.15 0-1.958.859-2.042 2.045h4.008zm-8.495-.119c0-1.179-.564-1.829-1.707-1.829-1.158 0-1.905.806-1.905 2.023v4.574h-1.646v-7.85h1.57v1.313h.038c.434-.895 1.288-1.448 2.522-1.448 1.768 0 2.781 1.105 2.781 2.903v5.082h-1.653V6.083zm-10.271 4.918c-2.294 0-3.802-1.545-3.802-4.075 0-2.522 1.516-4.067 3.802-4.067s3.802 1.545 3.802 4.067c0 2.53-1.509 4.075-3.802 4.075zm0-6.814c-1.288 0-2.126 1-2.126 2.739 0 1.746.838 2.746 2.126 2.746 1.295 0 2.126-1 2.126-2.746 0-1.739-.838-2.739-2.126-2.739zm-6.606 1.918c0-1.156-.594-1.851-1.752-1.851-1.219 0-1.966.821-1.966 2.06v4.537h-1.646V.083h1.631v4.231h.038c.442-.918 1.318-1.448 2.537-1.448 1.76 0 2.812 1.15 2.812 2.926v5.059h-1.654V6.105zM7.729 7.172H5.367v3.679H3.661V.083h4.122c2.133 0 3.619 1.44 3.619 3.537 0 2.105-1.516 3.552-3.673 3.552zm-.396-5.679H5.367v4.276h1.959c1.485 0 2.331-.783 2.331-2.141 0-1.359-.846-2.135-2.324-2.135zM.955 1.85c-.526 0-.952-.418-.952-.925 0-.515.426-.926.952-.926A.93.93 0 0 1 1.9.925a.935.935 0 0 1-.945.925zm.823 9.001H.132v-7.85h1.646v7.85z"/></svg>