<svg xmlns="http://www.w3.org/2000/svg" width="105.29" height="42" viewBox="0 0 105.29 42"><path d="M5.55 27H4.13L.87 15.02h1.56l2.38 9.74h.1l2.68-9.74H9.1l2.68 9.74h.1l2.38-9.74h1.56L12.57 27h-1.41L8.4 17.55h-.1L5.55 27zM17.7 14.5h1.43v4.96h.13c.45-.99 1.39-1.57 2.76-1.57 1.89 0 3.09 1.21 3.09 3.31V27h-1.43v-5.44c0-1.59-.71-2.37-2.07-2.37-1.6 0-2.48 1.01-2.48 2.52V27H17.7V14.5zm17.06 10.18c-.43 1.54-1.81 2.47-3.77 2.47-2.48 0-4.03-1.79-4.03-4.62 0-2.81 1.58-4.64 4.03-4.64 2.42 0 3.88 1.72 3.88 4.5v.55h-6.43v.07c.08 1.77 1.06 2.89 2.58 2.89 1.15 0 1.93-.42 2.31-1.21h1.43zm-6.32-2.89h4.93c-.03-1.59-.98-2.63-2.4-2.63-1.43 0-2.42 1.04-2.53 2.63zm8.37-3.74h1.36v1.33h.13c.27-.87 1.29-1.49 2.48-1.49.23 0 .53.02.71.04v1.43a6.24 6.24 0 0 0-.91-.08c-1.36 0-2.35.91-2.35 2.17V27H36.8v-8.95zm13.27 6.63c-.43 1.54-1.81 2.47-3.77 2.47-2.48 0-4.03-1.79-4.03-4.62 0-2.81 1.58-4.64 4.03-4.64 2.42 0 3.88 1.72 3.88 4.5v.55h-6.43v.07c.08 1.77 1.06 2.89 2.58 2.89 1.15 0 1.93-.42 2.31-1.21h1.43zm-6.31-2.89h4.93c-.03-1.59-.98-2.63-2.4-2.63-1.43 0-2.42 1.04-2.53 2.63zm14.88-6.05v2.32h1.99v1.2h-1.99v5.06c0 1.05.4 1.5 1.33 1.5.26 0 .4-.01.66-.03v1.2c-.28.05-.56.08-.84.08-1.84 0-2.58-.68-2.58-2.39v-5.43h-1.44v-1.2h1.44v-2.32h1.43zm3.27 6.79c0-2.88 1.58-4.63 4.13-4.63s4.12 1.75 4.12 4.63c0 2.87-1.58 4.63-4.12 4.63-2.55 0-4.13-1.76-4.13-4.63zm6.78 0c0-2.12-.95-3.35-2.65-3.35s-2.65 1.22-2.65 3.35c0 2.12.96 3.34 2.65 3.34s2.65-1.23 2.65-3.34zM76.78 27V15.02h4.58c2.2 0 3.54 1.15 3.54 2.99 0 1.25-.91 2.37-2.07 2.58v.13c1.64.21 2.67 1.33 2.67 2.91 0 2.11-1.51 3.36-4.06 3.36h-4.66zm1.5-6.81h2.39c1.81 0 2.73-.65 2.73-1.92 0-1.22-.86-1.93-2.35-1.93h-2.77v3.85zm2.95 5.49c1.8 0 2.75-.73 2.75-2.12 0-1.39-.98-2.09-2.89-2.09h-2.81v4.21h2.95zM94.71 27h-1.36v-1.4h-.13c-.45 1-1.4 1.56-2.77 1.56-2.01 0-3.05-1.2-3.05-3.31v-5.79h1.43v5.45c0 1.61.6 2.36 2.03 2.36 1.58 0 2.44-.94 2.44-2.51v-5.3h1.43V27zm2.51 3.19v-1.22c.17.03.4.04.6.04.82 0 1.27-.39 1.64-1.47l.17-.53-3.31-8.96h1.54l2.46 7.36h.13l2.45-7.36h1.52l-3.5 9.5c-.76 2.07-1.48 2.69-3.06 2.69-.2 0-.44-.02-.64-.05z" fill="#fff"/><path fill="none" d="M0 0h105.29v42H0z"/></svg>