<?xml version="1.0" encoding="utf-8"?>
<!-- Generator: Adobe Illustrator 16.0.4, SVG Export Plug-In . SVG Version: 6.00 Build 0)  -->
<!DOCTYPE svg PUBLIC "-//W3C//DTD SVG 1.1//EN" "http://www.w3.org/Graphics/SVG/1.1/DTD/svg11.dtd">
<svg version="1.1" id="Layer_1" xmlns="http://www.w3.org/2000/svg" xmlns:xlink="http://www.w3.org/1999/xlink" x="0px" y="0px"
	 width="87.36px" height="44px" viewBox="0 0 87.36 44" style="enable-background:new 0 0 87.36 44;" xml:space="preserve">
<g>
	<g>
		<rect style="fill:none;" width="87.36" height="44"/>
	</g>
	<g>
		<path style="fill:#FFFFFF;" d="M4.41,27H3.25l-2.69-9.86h1.29l1.96,8.02h0.08l2.21-8.02h1.24l2.21,8.02h0.08l1.96-8.02h1.29
			L10.19,27H9.03l-2.27-7.79H6.68L4.41,27z"/>
		<path style="fill:#FFFFFF;" d="M14.53,16.7h1.18v4.09h0.11c0.37-0.81,1.14-1.29,2.27-1.29c1.56,0,2.54,1,2.54,2.73V27h-1.18v-4.48
			c0-1.31-0.59-1.95-1.7-1.95c-1.32,0-2.04,0.83-2.04,2.08V27h-1.18V16.7z"/>
		<path style="fill:#FFFFFF;" d="M28.69,25.09c-0.36,1.26-1.49,2.04-3.1,2.04c-2.04,0-3.32-1.48-3.32-3.81
			c0-2.32,1.3-3.82,3.32-3.82c1.99,0,3.2,1.42,3.2,3.71v0.45h-5.3v0.05c0.06,1.46,0.88,2.38,2.13,2.38c0.95,0,1.59-0.35,1.9-1H28.69
			z M23.49,22.71h4.06c-0.03-1.31-0.81-2.17-1.98-2.17C24.4,20.54,23.58,21.4,23.49,22.71z"/>
		<path style="fill:#FFFFFF;" d="M30.49,19.63h1.12v1.09h0.11c0.22-0.72,1.07-1.22,2.04-1.22c0.19,0,0.44,0.01,0.59,0.03v1.18
			c-0.1-0.03-0.52-0.07-0.75-0.07c-1.12,0-1.93,0.75-1.93,1.79V27h-1.18V19.63z"/>
		<path style="fill:#FFFFFF;" d="M41.53,25.09c-0.36,1.26-1.49,2.04-3.1,2.04c-2.04,0-3.32-1.48-3.32-3.81
			c0-2.32,1.3-3.82,3.32-3.82c1.99,0,3.2,1.42,3.2,3.71v0.45h-5.3v0.05c0.06,1.46,0.88,2.38,2.13,2.38c0.95,0,1.59-0.35,1.9-1H41.53
			z M36.33,22.71h4.06c-0.03-1.31-0.81-2.17-1.98-2.17C37.24,20.54,36.42,21.4,36.33,22.71z"/>
		<path style="fill:#FFFFFF;" d="M48.81,17.72v1.91h1.64v0.98h-1.64v4.17c0,0.87,0.33,1.24,1.09,1.24c0.21,0,0.33-0.01,0.55-0.03
			v0.99c-0.23,0.04-0.46,0.07-0.69,0.07c-1.52,0-2.13-0.56-2.13-1.97v-4.47h-1.19v-0.98h1.19v-1.91H48.81z"/>
		<path style="fill:#FFFFFF;" d="M51.62,23.31c0-2.37,1.3-3.81,3.4-3.81s3.4,1.44,3.4,3.81c0,2.37-1.3,3.81-3.4,3.81
			S51.62,25.68,51.62,23.31z M57.2,23.31c0-1.75-0.79-2.76-2.18-2.76s-2.18,1-2.18,2.76c0,1.74,0.79,2.75,2.18,2.75
			S57.2,25.06,57.2,23.31z"/>
		<path style="fill:#FFFFFF;" d="M64.08,27v-9.86h3.77c1.81,0,2.92,0.95,2.92,2.46c0,1.03-0.75,1.96-1.7,2.13v0.11
			c1.35,0.17,2.2,1.09,2.2,2.4c0,1.74-1.24,2.77-3.34,2.77H64.08z M65.31,21.39h1.97c1.49,0,2.25-0.53,2.25-1.58
			c0-1-0.71-1.59-1.93-1.59h-2.28V21.39z M67.75,25.91c1.48,0,2.26-0.6,2.26-1.74c0-1.14-0.81-1.72-2.38-1.72h-2.32v3.47H67.75z"/>
		<path style="fill:#FFFFFF;" d="M78.95,27h-1.12v-1.15h-0.11c-0.37,0.82-1.16,1.29-2.28,1.29c-1.65,0-2.52-0.98-2.52-2.73v-4.77
			h1.18v4.48c0,1.33,0.49,1.94,1.67,1.94c1.3,0,2.01-0.77,2.01-2.06v-4.36h1.18V27z"/>
		<path style="fill:#FFFFFF;" d="M81.13,29.62v-1c0.14,0.03,0.33,0.03,0.49,0.03c0.68,0,1.05-0.32,1.35-1.21l0.14-0.44l-2.73-7.38
			h1.27l2.02,6.06h0.11l2.02-6.06h1.25l-2.88,7.82c-0.63,1.71-1.22,2.21-2.52,2.21C81.5,29.66,81.3,29.65,81.13,29.62z"/>
	</g>
</g>
</svg>
